<svg width="1920" height="274" viewBox="0 0 1920 274" fill="none" xmlns="http://www.w3.org/2000/svg">
<path d="M1920 226.301C1920 226.301 1855.83 205.388 1780.59 205.388C1633.88 205.388 1527.55 273.5 1439 273.5C1350.45 273.5 1296.88 258.801 1229.5 229.5C1162.12 200.199 1093.49 147 917.745 147C742 147 632.001 219.5 480 219.5C328 219.5 222 182.5 133 148C44 113.5 1.28511e-05 126.5 1.28511e-05 126.5L2.39101e-05 -0.000106817L480.5 -6.48099e-05L1215 -5.97901e-07L1920 6.10352e-05L1920 226.301Z" fill="white"/>
</svg>
