<svg version="1.2" xmlns="http://www.w3.org/2000/svg" viewBox="0 0 1023 566" width="1023" height="566">
	<style>
		.s0 { fill: #ffffff } 
	</style>
	<path id="Ebene 3" fill-rule="evenodd" class="s0" d="m588 0.4c11.9 0.24 15.67 0.7 21 2.54 3.58 1.23 9.88 3.81 14 5.72 5.95 2.76 9.15 5.16 15.5 11.66 6.28 6.42 8.95 10.12 12.4 17.18 2.43 4.95 4.92 10.13 5.54 11.5 0.7 1.55 3.59 3.74 7.6 5.76 3.55 1.79 14.56 6.64 24.46 10.78 9.9 4.14 19.02 8.53 20.27 9.74 1.24 1.22 2.79 3.57 3.44 5.22 0.89 2.28 0.9 4.56 0.02 9.5-0.63 3.58-2.72 9.65-4.63 13.5-1.92 3.85-6.32 10.32-9.79 14.37-3.47 4.05-8.79 9.01-11.81 11.02-3.02 2.02-8.65 4.95-12.5 6.52-6.54 2.67-8.34 2.91-48 4.64l-3.5 2.99c-1.92 1.65-5.08 3.73-7 4.62-1.92 0.9-6.31 2.92-9.75 4.49-3.44 1.57-6.49 2.74-6.79 2.6-0.3-0.14-0.02-2.28 0.61-4.75 0.63-2.47 2.17-6.53 3.42-9 1.25-2.47 4.35-6.41 6.89-8.75 2.54-2.34 6.31-5 8.37-5.91 2.75-1.21 8.53-1.86 21.75-2.43 11.52-0.49 20.16-1.37 24-2.44 3.3-0.92 7.8-2.59 10-3.72 2.2-1.13 6.48-4.57 9.51-7.65 3.03-3.08 6.07-7.06 6.75-8.85 1.15-3.01 1.04-3.47-1.51-6.2-1.51-1.63-3.65-5.54-4.75-8.69-1.45-4.15-2.83-6.23-5-7.52-1.65-0.97-7.5-3.61-13-5.86-5.5-2.24-12.36-5.52-15.25-7.28-2.96-1.8-5.87-4.51-6.68-6.2-0.79-1.65-3.46-7.27-5.94-12.5-2.8-5.91-6.13-11.16-8.82-13.88-2.37-2.41-6.11-5.63-8.31-7.16-2.2-1.52-7.6-4.22-12-5.99-4.4-1.77-10.92-3.64-14.5-4.16-3.58-0.52-9.65-0.64-13.5-0.27-3.85 0.37-9.25 1.35-12 2.18-2.75 0.83-7.25 2.63-10 4.02-2.83 1.42-8.46 6.03-13 10.65-4.89 4.97-9.63 11.04-12.21 15.62-2.31 4.12-5.85 12.44-7.86 18.49-3.56 10.72-3.65 11.37-3.56 25.5 0.09 14 0.19 14.72 3.11 20.75 1.79 3.71 4.54 7.46 6.77 9.23 2.06 1.64 6 3.5 8.75 4.14 2.75 0.63 7.25 0.86 10 0.51 2.75-0.35 6.69-1.76 8.75-3.13 2.06-1.38 5.1-4.52 6.75-7 1.65-2.47 3.73-7.31 4.62-10.75 1.25-4.79 1.51-9.17 1.13-18.75-0.27-6.87-1.51-17.9-2.76-24.5-1.24-6.6-1.97-12.79-1.62-13.75 0.34-0.96 2.09-2.49 3.88-3.4 2.63-1.33 3.82-1.43 6.25-0.52 1.65 0.63 3.56 2.27 4.25 3.65 0.69 1.39 2.38 9.05 3.75 17.02 1.7 9.85 2.5 18.27 2.51 26.25 0 7.5-0.57 13.92-1.57 17.75-0.87 3.3-2.78 8.48-4.24 11.5-1.46 3.03-4.92 7.82-7.68 10.65-2.88 2.96-7.57 6.36-11.02 7.98-5.49 2.59-6.98 2.83-17.5 2.85-10.9 0.02-11.79-0.14-17-2.98-3.02-1.65-7.91-5.47-10.86-8.5-2.94-3.02-5.94-6.62-6.66-8-0.72-1.37-2.52-6.55-3.99-11.5-2.08-6.97-2.69-11.15-2.71-18.5-0.02-6.63 0.74-12.83 2.49-20.5 1.38-6.05 3.9-14.6 5.6-19 1.69-4.4 5.28-11.6 7.98-16 2.69-4.4 8.33-11.49 12.52-15.75 4.2-4.26 10.22-9.4 13.38-11.41 3.16-2.02 8.67-4.76 12.25-6.09 3.58-1.34 8.3-2.82 10.5-3.29 2.2-0.47 10.52-0.73 18.5-0.56zm-230.75 3.67c1.51-0.04 3.88 0.38 5.25 0.93 1.38 0.55 3.61 2.24 4.97 3.75 1.35 1.51 2.97 4.55 3.58 6.75 0.87 3.1 0.82 4.98-0.21 8.34-0.74 2.38-2.46 5.44-3.84 6.79-1.94 1.91-3.95 2.6-9 3.07-5.06 0.48-8.49 0.09-24.5-4.07l-7 3.38c-4.05 1.95-9 5.4-11.75 8.18-2.82 2.86-6.26 7.96-12.18 20.31l0.15 20c0.12 16.5 0.6 22.63 2.73 35 1.42 8.25 4.39 22.43 6.59 31.5 2.21 9.07 4.79 17.69 5.74 19.15 0.94 1.46 2.91 4.16 4.37 6 1.45 1.84 4.31 7.4 6.35 12.35 2.04 4.95 5.76 12.15 8.26 16 2.51 3.85 7.8 10.15 11.75 14 4.9 4.77 9.56 8.15 14.59 10.62 4.07 1.99 9.88 4.41 12.9 5.38 4.29 1.37 7.92 1.67 16.5 1.37 10.88-0.38 11.11-0.44 21.5-5.51 9.49-4.63 11.39-6.05 19.75-14.74 8.5-8.84 9.81-10.77 16.24-23.87 3.84-7.84 8.34-16.05 10-18.25 1.86-2.47 3.95-7.43 5.48-13 1.35-4.95 3.63-14.4 5.07-21 1.43-6.6 3.48-17.85 4.55-25 1.07-7.15 2.21-19.3 2.55-27 0.38-8.76 0.18-16.24-0.52-20-0.62-3.3-2.43-8.7-4.03-12-1.6-3.3-5.31-8.48-8.25-11.51-3.63-3.74-7.43-6.43-18.34-11.22l-8 2.11c-4.4 1.16-10.59 2.11-13.75 2.11-3.46 0.01-7.17-0.69-9.33-1.74-2.5-1.22-4.2-3.11-5.65-6.25-1.6-3.48-1.92-5.52-1.39-9 0.37-2.47 1.34-5.51 2.15-6.75 0.81-1.24 3.26-3.21 5.44-4.38 3.68-1.98 4.46-2.05 10.75-0.95 4.99 0.88 11.53 3.54 24.78 10.09 15.32 7.57 18.86 9.76 23.75 14.69 3.17 3.19 6.84 7.38 8.16 9.3 1.31 1.93 3.37 5.75 4.56 8.5 1.19 2.75 2.81 8.04 3.6 11.75 0.79 3.76 1.43 12.19 1.43 19 0 6.74-0.68 18.1-1.51 25.25-0.83 7.15-2.45 18.18-3.6 24.5-1.14 6.33-3.83 18.25-5.96 26.5-2.14 8.25-4.36 18.6-4.93 23-0.77 5.86-2.28 10.67-5.64 18-2.53 5.5-6.44 13.15-8.7 17-2.3 3.92-8.29 11.34-13.63 16.85-7.6 7.86-11.46 10.94-19.03 15.21-5.23 2.95-11.52 6.06-14 6.91-2.48 0.85-5.53 2.1-6.78 2.79-1.26 0.68-2.69 2.59-3.19 4.24-0.5 1.65-1.4 6.38-2.01 10.5-0.77 5.24-1.92 8.68-6.52 15.31l0.63 23.1c0.54 19.73 0.97 24.33 2.95 31.59 1.67 6.14 3.71 10.58 7.35 16 2.77 4.13 7.75 10.22 11.06 13.54 4.56 4.58 7.82 6.8 13.51 9.19 4.13 1.73 10.65 3.9 14.5 4.81 5.16 1.23 9.1 1.49 15 1 4.77-0.39 12.24-2.04 18.5-4.08 5.77-1.88 12.63-4.89 15.24-6.69 2.61-1.8 7.78-5.35 11.5-7.89 3.72-2.55 11.05-9.07 16.3-14.5 5.25-5.44 10.93-11.9 12.62-14.38 1.69-2.48 4.89-8.1 7.1-12.5 2.22-4.4 4.72-10.48 5.57-13.5 0.84-3.02 1.81-8.2 2.14-11.5 0.41-4.05 0.1-7.95-0.97-12-0.87-3.3-3.03-8.43-4.79-11.39-1.77-2.97-5.23-7.02-7.71-9.02-2.48-1.99-6.75-4.69-9.5-6-4.3-2.05-6.12-2.32-13-1.97-5.93 0.31-9.27 1.05-12.93 2.9-2.71 1.36-7.21 4.55-10 7.09-2.79 2.54-6.26 6.81-7.71 9.5-1.45 2.69-2.9 7.37-3.23 10.39-0.32 3.02-0.22 9.55 0.24 14.5 0.73 7.97 1.44 10.28 6.23 20.21 4.86 10.1 5.25 11.38 3.9 12.89-0.82 0.92-3.41 2.96-10 7.4l-3.13-4.25c-1.73-2.34-4.94-8.07-7.14-12.75-2.2-4.68-4.6-11.43-5.35-15-0.74-3.57-1.36-10.1-1.37-14.5-0.02-4.4 0.42-10.48 0.98-13.5 0.56-3.02 2.47-8.43 4.26-12 2.03-4.05 5.89-9.18 10.25-13.61 5.25-5.33 9-8.08 23-14.87l27-0.02 7.5 3.99c4.73 2.52 9.87 6.4 13.92 10.5 4.67 4.73 7.54 8.83 14.58 23.51l0.31 14c0.27 12.12 0.02 14.94-1.85 21-1.2 3.85-3.61 9.93-5.37 13.5-1.76 3.57-4.97 9.18-7.14 12.45-2.17 3.28-7.58 10.03-12.01 15-4.44 4.98-10.51 11.21-13.5 13.84-2.99 2.64-9.27 7.42-13.94 10.62-4.68 3.21-11.65 7.42-15.5 9.36-3.85 1.94-11.05 4.71-16 6.16-4.95 1.45-12.38 2.9-16.5 3.23-4.12 0.33-11.55 0.05-16.5-0.62-4.95-0.67-11.7-2.07-15-3.1-3.3-1.04-8.87-3.59-12.39-5.66-3.51-2.08-9.52-6.71-13.37-10.28-3.84-3.57-9.05-9.65-11.58-13.5-2.53-3.85-6.02-10.37-7.76-14.5-1.74-4.12-3.68-10.2-4.31-13.5-0.64-3.3-1.5-17.02-1.93-30.5-0.71-22.02-1-24.9-2.88-28.5-1.15-2.2-2.81-7.71-3.68-12.25-0.88-4.54-2.05-9.15-2.6-10.25-0.58-1.16-6.15-4.45-13.25-7.84-6.74-3.21-15.85-8.54-20.25-11.84-4.4-3.3-9.85-8.21-12.1-10.91-2.26-2.7-6.29-8.28-8.95-12.41-2.66-4.12-7.07-12.22-9.79-18-4.1-8.68-5.08-11.88-5.7-18.5-0.4-4.4-2.34-13.85-4.29-21-1.95-7.15-4.7-18.85-6.09-26-1.4-7.15-3.23-18.29-4.06-24.75-0.84-6.46-1.51-18.61-1.5-27 0.01-10.7 0.49-17.04 1.6-21.25 0.88-3.3 2.61-8.25 3.85-11 1.25-2.75 3.96-7.25 6.03-10 2.07-2.75 5.84-6.73 8.38-8.84 2.54-2.11 11.6-7.45 20.12-11.88 8.52-4.42 18.2-8.85 21.5-9.84 3.3-0.99 7.24-1.83 8.75-1.87zm148.41 120.43c1.97 3.3 4.71 7.35 6.09 9 2.25 2.7 2.44 3.58 1.88 8.75-0.35 3.16-1.96 11.04-3.58 17.5-1.63 6.46-5.03 17.82-7.55 25.25-2.53 7.43-6.77 18-9.43 23.5-2.66 5.5-6.98 13.15-9.59 17-2.62 3.85-9.08 12.1-14.37 18.33-5.28 6.23-13.35 15.9-17.91 21.5-4.57 5.59-10.27 13.54-12.67 17.67-2.39 4.12-5.52 10.31-6.94 13.75-1.43 3.44-3.27 8.84-4.1 12-0.82 3.16-1.51 10.02-1.52 15.25-0.01 8.77 0.24 10 3.26 15.94 1.94 3.83 4.89 7.74 7.27 9.65 2.2 1.76 6.02 4.26 8.5 5.55 3.24 1.68 6.61 2.44 12 2.69 4.13 0.19 9.52-0.21 12-0.9 2.48-0.69 6.98-2.47 10-3.96 3.02-1.49 8.87-5.39 13-8.67 4.12-3.27 10.25-9.06 13.6-12.87 3.36-3.81 9.05-11.2 12.64-16.43 3.6-5.23 9.77-15.35 13.72-22.5 3.95-7.15 7.59-13.45 8.09-14 0.59-0.64 1.43 0.27 2.34 2.5 0.78 1.93 1.74 5.52 2.13 8 0.39 2.48 0.44 6.52 0.11 9-0.4 3.07-2.7 8-7.22 15.5-3.64 6.05-9.66 15.05-13.37 20-3.72 4.95-10.08 11.95-14.15 15.55-4.06 3.61-9.19 7.94-11.39 9.62-2.2 1.68-6.48 4.45-9.5 6.14-3.02 1.69-8.88 4.18-13 5.53-4.13 1.35-10.2 2.78-13.5 3.17-3.66 0.44-8.34 0.24-12-0.5-3.3-0.66-8.81-2.51-12.25-4.11-3.53-1.64-8.97-5.44-12.5-8.75-3.52-3.31-7.63-8.43-9.41-11.75-1.74-3.25-3.94-8.6-4.89-11.9-1.35-4.72-1.61-8.46-1.22-17.5 0.41-9.39 1.07-13.2 3.63-20.75 1.73-5.09 4.55-12.06 6.28-15.5 1.73-3.44 4.97-9.18 7.19-12.75 2.23-3.57 5.2-7.96 6.61-9.75 1.41-1.79 7.29-8.71 13.06-15.38 5.77-6.67 12.68-14.89 15.34-18.25 2.67-3.37 7.02-9.72 9.69-14.12 2.66-4.4 6.64-11.82 8.84-16.5 2.21-4.68 5.81-13.9 8-20.5 2.19-6.6 5.13-17.18 6.52-23.5 1.4-6.32 3.25-15.78 4.12-21 0.87-5.22 1.8-10.17 2.07-11 0.32-0.97 1.76 0.62 4.08 4.5zm105.78 31.5c0.52 0 2.5 5.06 4.39 11.25 1.9 6.19 4.29 13.28 5.32 15.75 1.74 4.17 2.25 4.59 7.11 5.79 2.88 0.71 7.94 2.57 11.24 4.14 3.57 1.69 8.64 5.43 12.51 9.21 5.52 5.39 7.08 7.73 10.21 15.36 3.18 7.74 4.33 9.45 8.24 12.25 2.5 1.79 5.3 4.49 6.23 6 1.37 2.23 1.56 4.08 1 9.75-0.41 4.19-1.72 9.21-3.27 12.5-1.42 3.02-3.84 7.07-5.37 9-1.53 1.93-4.53 4.73-6.67 6.24-2.13 1.5-7.48 4.1-11.88 5.77-4.4 1.66-9.02 4.03-10.28 5.26-1.25 1.23-2.25 3.35-2.23 4.73 0.02 1.37 0.63 4.75 1.37 7.5 0.73 2.75 3.39 10.4 5.9 17 2.51 6.6 5.25 15.37 6.09 19.5 0.83 4.12 1.83 11.1 2.93 23.5l-6.39 4.07c-3.51 2.25-7.18 4.38-8.14 4.75-1.61 0.63-1.74-0.27-1.66-11.07 0.07-8.77-0.41-13.65-1.89-19.25-1.09-4.13-4.33-13.57-7.19-21-4.37-11.34-5.28-14.86-5.7-22-0.45-7.63-0.25-8.96 1.92-13 1.33-2.48 4.63-6.17 7.34-8.22 2.71-2.05 8.3-4.94 12.43-6.42 4.12-1.49 8.51-3.41 9.74-4.28 1.23-0.87 3.37-3.83 4.76-6.58 1.39-2.75 2.52-6.24 2.51-7.75-0.01-1.89-1.35-4.1-4.26-7.04-2.5-2.53-6.16-8.19-8.9-13.75-2.96-6.04-6.03-10.7-8.5-12.89-2.12-1.88-6.1-4.45-8.85-5.71-2.75-1.26-8.38-2.79-20-4.5l-1.86-5.18c-1.02-2.85-2.82-7.34-4-9.97-1.17-2.63-2.48-4.77-2.89-4.75-0.41 0.02-3.19 3.75-6.17 8.29-2.99 4.54-7.08 11.85-9.1 16.25-2.02 4.4-7.51 17.45-12.19 29-4.68 11.55-8.95 21.9-9.49 23-0.91 1.84-1.43 1.53-12.58-10l8.41-20.5c4.63-11.28 10.25-24.32 12.49-29 2.23-4.68 6.11-11.65 8.62-15.5 2.5-3.85 7.52-10.09 11.15-13.87 3.64-3.78 8.86-8.39 11.61-10.25 2.75-1.86 5.42-3.39 5.94-3.38zm123.56 84.65c5.9 0.38 10.03 1.27 13.5 2.88 2.75 1.29 7.02 4.12 9.5 6.29 2.48 2.18 5.95 6.37 7.72 9.32 1.78 2.95 4 8.51 4.94 12.36 1.44 5.92 1.53 8 0.55 13.5-0.64 3.57-2.27 8.75-3.63 11.5-1.36 2.75-4.18 6.98-6.28 9.39-2.09 2.41-5.6 5.43-7.8 6.71-2.2 1.27-6.7 3.27-10 4.44-4.94 1.74-7.33 2.01-13.5 1.5-4.13-0.33-8.37-0.71-9.43-0.83-1.3-0.14-2.91 1.26-4.94 4.29-1.65 2.48-7.13 9.68-12.18 16-5.04 6.32-14.3 16.4-20.56 22.4-6.26 5.99-14.99 13.44-19.39 16.56-4.4 3.11-10.7 7.24-14 9.16-3.3 1.93-10.05 5.24-15 7.36-4.95 2.12-13.05 4.97-18 6.33-7.18 1.97-12.14 2.57-24.5 2.94-12.18 0.37-17.32 0.1-24-1.26-4.67-0.95-11.65-2.76-15.5-4.01-3.85-1.26-10.38-3.91-14.5-5.89-4.13-1.98-9.08-4.95-14.5-9.6l4.5-3.99c2.48-2.2 5.4-4.26 6.5-4.59 1.19-0.35 4.22 0.51 7.5 2.13 3.02 1.5 8.87 3.96 13 5.47 4.12 1.51 11.1 3.57 15.5 4.57 4.85 1.11 11.74 1.8 17.5 1.78 5.23-0.03 13.33-0.84 18-1.81 4.67-0.96 12.33-3.22 17-5.01 4.67-1.79 10.75-4.4 13.5-5.78 2.75-1.39 9.27-5.38 14.5-8.86 6.22-4.15 14-10.83 22.54-19.37 7.17-7.17 16.95-18.21 21.73-24.53 4.78-6.32 8.69-12.18 8.68-13 0-0.82-1.05-2.85-2.34-4.5-1.28-1.65-3.6-5.48-5.16-8.5-2.57-4.98-2.84-6.49-2.89-16-0.05-9.47 0.22-11.09 2.74-16.5 1.54-3.3 5.14-8.4 8-11.33 2.86-2.93 7.34-6.42 9.95-7.75 2.61-1.33 6.44-2.85 8.5-3.37 2.06-0.52 7.58-0.7 12.25-0.4zm-9 15.39c-1.92 0.5-5.26 2.15-7.4 3.68-2.15 1.53-4.9 4.35-6.13 6.28-1.22 1.93-2.77 5.52-3.44 8-0.67 2.48-0.95 6.19-0.63 8.25 0.33 2.06 1.5 5.55 2.6 7.75 1.1 2.2 3.91 5.54 6.25 7.42 2.34 1.89 5.49 3.91 7 4.5 1.51 0.6 5.34 1.08 8.5 1.07 4.54-0.01 6.86-0.64 11-3 3.35-1.91 6.39-4.71 8.41-7.74 2.29-3.45 3.28-6.25 3.61-10.25 0.25-3.02-0.11-7.52-0.79-10-0.87-3.12-2.75-5.96-6.11-9.25-2.99-2.91-6.32-5.11-8.62-5.69-2.06-0.52-5.33-1.16-7.25-1.43-1.92-0.27-5.08-0.08-7 0.41zm7.75 7.43c2.34 0.29 5.49 1.36 7 2.37 1.51 1.02 3.83 3.6 5.16 5.75 1.95 3.16 2.32 4.87 1.96 8.91-0.25 2.76-1.37 6.34-2.51 8-1.13 1.65-3.82 3.86-5.96 4.91-2.28 1.12-5.77 1.86-8.4 1.79-3.06-0.09-5.62-0.93-8-2.63-1.92-1.38-4.06-3.42-4.75-4.54-0.69-1.12-1.32-4.62-1.41-7.78-0.13-4.56 0.32-6.46 2.17-9.18 1.29-1.88 4.18-4.48 6.42-5.78 3.16-1.82 5.02-2.23 8.32-1.82zm-139.25 179.58c7.19-0.04 12.11 0.53 17.5 2.02 4.12 1.14 9.75 3.28 12.5 4.75 2.75 1.48 8.15 5.83 12.01 9.68 3.91 3.92 8.39 9.64 10.15 13 1.74 3.3 4.19 9.37 5.46 13.5 1.87 6.08 2.29 9.68 2.22 19-0.06 9.46-0.53 12.92-2.64 19.5-1.47 4.6-4.66 11.19-7.5 15.5-2.71 4.12-7.13 9.41-9.81 11.75-2.69 2.33-7.81 5.79-11.39 7.69-3.58 1.89-9.42 4.13-13 4.98-3.58 0.85-10.21 1.56-14.75 1.57-4.54 0-10.61-0.48-13.5-1.08-2.89-0.6-8.96-2.85-13.5-5-5.77-2.73-9.98-5.64-14.02-9.66-3.17-3.16-7.4-8.45-9.41-11.75-2-3.3-4.63-8.92-5.83-12.5-1.2-3.58-2.53-10.1-2.96-14.5-0.44-4.4-0.4-11.38 0.08-15.5 0.48-4.13 1.77-10.2 2.86-13.5 1.1-3.3 3.61-8.7 5.57-12 1.97-3.3 5.78-8.25 8.48-11 2.69-2.75 7.5-6.58 10.68-8.5 3.18-1.93 9.16-4.49 13.29-5.7 5.42-1.58 10.29-2.21 17.51-2.25zm302 0.05c5.5-0.02 12.48 0.59 15.5 1.34 3.02 0.75 7.3 2.02 9.5 2.81 2.2 0.8 5.91 2.64 12.5 6.75l-5.5 12.8-4-2.94c-2.2-1.61-6.92-3.83-10.5-4.93-3.58-1.09-9.42-2.26-13-2.6-4.41-0.41-8.91-0.07-14 1.05-4.13 0.91-9.75 2.95-12.5 4.54-2.75 1.59-6.98 4.85-9.39 7.24-2.42 2.39-5.85 6.59-7.62 9.34-1.78 2.75-3.94 7.02-4.79 9.5-0.85 2.48-1.87 7.42-2.26 11-0.42 3.9-0.22 9.3 0.5 13.5 0.66 3.85 2.52 9.81 4.13 13.25 1.61 3.44 5.34 8.84 8.28 12 2.95 3.16 8.01 7.19 11.25 8.94 3.25 1.76 9.05 3.93 12.9 4.82 4.92 1.14 8.93 1.42 13.5 0.95 3.58-0.38 9.2-1.57 12.5-2.66 3.3-1.09 8.14-3.52 15.5-8.8l5.14 12.5-2.32 1.86c-1.28 1.02-4.46 2.94-7.07 4.25-2.61 1.31-8.24 3.35-12.5 4.51-6.48 1.78-9.55 2.04-18.75 1.61-7.45-0.34-12.94-1.18-17-2.6-3.3-1.14-8.92-3.97-12.5-6.27-3.58-2.31-8.68-6.48-11.35-9.27-2.66-2.8-6.57-8.01-8.67-11.59-2.1-3.58-4.78-9.65-5.96-13.5-1.52-5-2.16-9.86-2.23-17-0.05-5.5 0.48-12.48 1.18-15.5 0.71-3.02 2.73-8.65 4.5-12.5 1.77-3.85 5.09-9.36 7.37-12.25 2.29-2.89 6.97-7.34 10.41-9.89 3.44-2.55 8.5-5.68 11.25-6.96 2.75-1.27 7.48-2.98 10.5-3.79 3.06-0.82 9.93-1.49 15.5-1.51zm-896.29 0.9l16.29 0.02 4.86 12.74c2.68 7.01 11.39 29.16 19.37 49.24 7.97 20.08 14.79 36.85 15.13 37.28 0.35 0.42 7.89-17.35 16.76-39.5 8.87-22.16 17.87-44.68 23.88-59.83l7.75 0.03c6.91 0.02 7.69 0.21 7.22 1.77-0.29 0.96-11.43 28.18-48.97 119.21l-12.5 0.04-2.91-7.25c-1.61-3.99-11.68-28.4-22.39-54.25-10.72-25.85-20.61-49.81-21.99-53.25zm127.8 0h67v13h-52v40h43v13h-43v42h52v13h-67zm79 0h80v13h-33v108h-14l-0.5-107.5-32.5-0.5zm140 0l21.25 0.01c15.72 0.01 22.68 0.4 26.75 1.51 3.02 0.82 7.3 2.56 9.5 3.87 2.2 1.3 5.77 4.34 7.94 6.74 2.16 2.4 4.85 6.39 5.98 8.87 1.61 3.57 2.04 6.58 2.04 14.5 0.01 9.01-0.29 10.64-2.98 16.41-2.06 4.43-4.68 7.92-8.48 11.32-3.11 2.78-7.9 5.82-11 6.99-4.48 1.69-8.34 2.15-36 2.78v48h-15zm94 0l21.75-0.02c19.07-0.02 22.55 0.23 28.25 2 3.57 1.12 8.63 3.6 11.25 5.52 2.61 1.93 6.11 5.64 7.77 8.25 1.67 2.61 3.47 6.32 4 8.25 0.53 1.92 0.96 6.87 0.95 11-0.02 5.42-0.64 9.02-2.26 13-1.22 3.02-3.8 7.47-5.72 9.88-1.92 2.41-6.08 5.9-14.99 11.12l15.62 24.75c8.59 13.61 15.79 25.31 16 26 0.28 0.93-1.73 1.24-16.12 1.21l-30.5-48.96h-21v49h-15zm270 0h15.04l-0.54 96.5-2.47 6c-1.47 3.58-4.3 7.85-7 10.58-2.92 2.94-6.58 5.35-10.28 6.75-3.91 1.47-8 2.17-12.75 2.17-4.57 0-8.83-0.69-12.25-1.99-2.89-1.1-6.8-3.46-8.68-5.25-1.88-1.79-4.47-4.84-5.75-6.76-1.28-1.92-2.99-5.98-3.81-9-0.82-3.02-1.5-6.74-1.51-11h15l0.02 3.25c0.01 1.79 0.83 5.05 1.83 7.25 0.99 2.2 3.12 5.15 4.72 6.56 1.61 1.41 4.5 2.91 6.43 3.34 2.19 0.49 5.33 0.28 8.42-0.56 3.63-0.99 5.82-2.39 8.29-5.34 1.85-2.2 3.79-5.58 4.32-7.5 0.54-1.99 0.96-23.21 0.96-49.25zm43 0h67v13h-52v40h43v13h-43v42h52v13h-67zm189 0h80v13h-33v108h-14l-0.5-107.5-32.5-0.5zm-360.07 13.81c-3.61 0.93-9.01 3.3-12 5.26-2.99 1.96-7.06 5.56-9.06 8-2 2.44-4.87 6.91-6.37 9.93-1.51 3.02-3.36 8.42-4.1 12-0.75 3.57-1.36 8.52-1.36 11 0 2.48 0.66 7.65 1.47 11.5 0.81 3.85 2.93 9.92 4.71 13.5 1.78 3.58 5.5 8.72 8.26 11.43 2.76 2.71 7.72 6.21 11.02 7.77 3.3 1.56 8.93 3.36 12.5 4.02 5.02 0.92 8.09 0.92 13.5 0 3.85-0.66 9.7-2.46 13-4.02 3.3-1.56 8.25-5.08 11-7.81 2.75-2.74 6.45-7.66 8.22-10.94 1.77-3.27 3.9-9.1 4.73-12.95 0.83-3.85 1.52-9.48 1.52-12.5 0-3.02-0.69-8.43-1.54-12-0.85-3.58-2.68-8.75-4.07-11.5-1.39-2.75-4.18-7-6.19-9.45-2.02-2.44-6.37-6.16-9.67-8.26-3.71-2.36-8.58-4.38-12.75-5.3-3.71-0.82-8.89-1.46-11.5-1.43-2.61 0.03-7.71 0.82-11.32 1.75zm-220.93 45.19c22.86 0.04 27.53-0.37 30.25-1.48 2.06-0.83 5.44-3.25 7.5-5.36 2.06-2.11 4.31-5.6 4.98-7.75 0.68-2.15 1.21-6.16 1.18-8.91-0.04-2.75-0.59-6.43-1.24-8.17-0.64-1.74-2.41-4.56-3.92-6.25-1.51-1.69-4.89-4.06-7.5-5.25-3.86-1.77-7.2-2.26-17.86-2.63l-13.12-0.46zm94 0c25.39-0.51 28.19-0.88 32-2.7 2.48-1.18 5.69-3.65 7.15-5.48 1.46-1.82 3.18-4.67 3.84-6.32 0.65-1.65 1.17-5.7 1.15-9-0.03-4.23-0.72-7.32-2.34-10.5-1.52-2.97-3.82-5.42-6.8-7.23-2.47-1.5-6.97-3.2-10-3.76-3.02-0.57-9.89-1.03-15.25-1.02l-9.75 0.01z"/>
</svg>