<svg version="1.2" xmlns="http://www.w3.org/2000/svg" viewBox="0 0 32 31" width="32" height="31">
	<style>
		.s0 { fill: #f89e1a } 
	</style>
	<path id="Ebene 1" class="s0" d="m13.82 5.34l-2.2 5.52c-1.08 0.16-2.5 0.27-3.86 0.35-1.36 0.07-3.66 0.22-5.11 0.32-1.46 0.11-2.65 0.24-2.65 0.3q0.01 0.09 0.11 0.11c0.05 0 0.36 0.24 0.68 0.53 0.32 0.29 0.92 0.82 1.34 1.17 0.42 0.35 1.87 1.6 3.24 2.78 1.36 1.17 2.71 2.32 2.99 2.56l0.52 0.43c-1.96 7.72-2.61 10.33-2.7 10.78-0.1 0.45-0.15 0.81-0.11 0.81 0.04 0 0.48-0.27 0.99-0.61 0.5-0.34 1.2-0.79 1.55-1 0.35-0.21 1.62-1.01 2.82-1.79 1.2-0.77 2.66-1.71 3.25-2.08 0.58-0.37 1.13-0.7 1.23-0.72 0.1-0.03 0.61 0.21 1.13 0.53 0.52 0.31 1.57 0.97 2.33 1.45 0.75 0.49 2.56 1.64 4.02 2.56 1.46 0.92 2.66 1.66 2.67 1.64 0.02-0.02-0.29-1.29-0.68-2.82-0.38-1.52-1.04-4.12-1.45-5.76l-0.75-2.99c0.68-0.58 1.42-1.2 2.08-1.77 0.66-0.57 1.36-1.17 1.55-1.34 0.2-0.18 0.74-0.64 1.2-1.03 0.47-0.39 1.55-1.31 2.4-2.04 0.86-0.74 1.57-1.38 1.59-1.43 0.02-0.04-1.15-0.16-2.61-0.27-1.46-0.1-3.76-0.25-5.12-0.33-1.36-0.08-2.78-0.19-3.16-0.24l-0.7-0.1c-2.16-5.51-2.84-7.24-2.91-7.4-0.07-0.16-0.39-0.96-0.71-1.78-0.32-0.82-0.62-1.58-0.68-1.68-0.05-0.1-1.06 2.26-2.29 5.34z"/>
</svg>