<svg version="1.2" xmlns="http://www.w3.org/2000/svg" viewBox="0 0 32 31" width="32" height="31">
	<style>
		.s0 { fill: #f89e1a } 
	</style>
	<path id="Ebene 6" fill-rule="evenodd" class="s0" d="m16.12 0.05c0.01 0.01 0.47 1.15 1.02 2.52 0.54 1.37 1.35 3.43 1.79 4.56 0.45 1.13 0.96 2.44 1.47 3.74l0.24 0.03c0.13 0.02 0.41 0.06 0.63 0.08 0.22 0.03 0.75 0.08 1.17 0.11 0.43 0.03 0.91 0.07 1.07 0.07 0.16 0.01 0.74 0.05 1.29 0.08 0.55 0.03 1.18 0.07 1.41 0.09 0.23 0.02 0.73 0.05 1.11 0.07 0.38 0.03 1.1 0.08 1.6 0.11 0.5 0.03 1.22 0.09 1.61 0.12 0.39 0.03 0.86 0.08 1.05 0.11 0.18 0.02 0.34 0.05 0.36 0.05q0.03 0.02-0.01 0.07c-0.02 0.03-0.21 0.2-0.42 0.39-0.21 0.19-0.61 0.55-0.89 0.79-0.28 0.24-0.73 0.64-1.02 0.88-0.29 0.24-0.79 0.68-1.13 0.96-0.33 0.28-0.75 0.63-0.93 0.79-0.18 0.15-0.78 0.67-1.33 1.15-0.56 0.47-1.3 1.11-1.66 1.41-0.36 0.31-0.75 0.63-0.86 0.73q-0.17 0.14-0.51 0.49l0.39 1.57c0.22 0.86 0.72 2.87 1.13 4.46 0.4 1.6 0.83 3.33 0.96 3.85 0.13 0.51 0.26 1.07 0.29 1.22 0.04 0.16 0.07 0.31 0.08 0.34q0.01 0.05-0.01 0.05c-0.01 0-0.11-0.05-0.21-0.11-0.11-0.06-0.4-0.24-0.65-0.39-0.26-0.16-0.85-0.53-1.32-0.82-0.48-0.3-1.16-0.73-1.53-0.97-0.37-0.23-1.11-0.7-1.64-1.04-0.54-0.34-1.35-0.86-1.8-1.14-0.44-0.28-1-0.63-1.24-0.78-0.24-0.15-0.58-0.36-0.76-0.46-0.18-0.1-0.43-0.24-0.57-0.3-0.13-0.07-0.28-0.12-0.33-0.12-0.05 0-0.15 0.03-0.21 0.07-0.07 0.03-0.3 0.16-0.5 0.28-0.2 0.13-0.84 0.53-1.41 0.89-0.57 0.37-1.28 0.82-1.57 1.01-0.29 0.19-0.93 0.6-1.42 0.91-0.49 0.31-1.35 0.86-1.91 1.21-0.56 0.36-1.4 0.89-1.85 1.18-0.46 0.3-0.88 0.56-0.93 0.59q-0.09 0.05-0.11 0.04c-0.01 0 0-0.16 0.03-0.35 0.03-0.2 0.27-1.23 0.56-2.42 0.29-1.14 0.71-2.84 0.95-3.78 0.24-0.94 0.62-2.44 0.85-3.33 0.22-0.9 0.41-1.65 0.41-1.67 0-0.02-0.12-0.14-0.26-0.26-0.14-0.11-0.69-0.58-1.21-1.02-0.52-0.44-1.04-0.89-1.15-0.99-0.12-0.09-0.72-0.61-1.34-1.14-0.62-0.54-1.24-1.08-1.39-1.2-0.14-0.12-0.4-0.35-0.57-0.5-0.18-0.15-0.53-0.45-0.79-0.67-0.26-0.22-0.69-0.59-0.95-0.82-0.26-0.23-0.56-0.5-0.68-0.6-0.11-0.09-0.28-0.22-0.36-0.27-0.09-0.06-0.16-0.12-0.16-0.13q0.01-0.03 0.14-0.06c0.08-0.02 0.31-0.05 0.53-0.08 0.21-0.02 0.44-0.05 0.52-0.06 0.07 0 0.48-0.04 0.9-0.07 0.42-0.03 1.59-0.11 2.59-0.18 1-0.06 2.2-0.14 2.67-0.17 0.46-0.02 1.22-0.07 1.69-0.1 0.46-0.04 1.08-0.09 1.37-0.12 0.3-0.03 0.68-0.07 0.85-0.09 0.17-0.03 0.32-0.06 0.34-0.07 0.02-0.02 0.18-0.38 0.35-0.81 0.17-0.43 0.73-1.83 1.24-3.11 0.5-1.28 1.09-2.76 1.3-3.27 0.22-0.52 0.54-1.3 0.72-1.74 0.19-0.43 0.44-1 0.55-1.25 0.12-0.26 0.24-0.5 0.28-0.55q0.06-0.08 0.08-0.06zm-0.1 5.41c-0.02 0.01-0.03 3.78-0.03 8.63l0.01 8.61c0.34 0.04 0.55 0.08 0.67 0.13 0.13 0.04 0.45 0.18 0.71 0.31 0.26 0.13 0.65 0.34 0.86 0.47 0.21 0.13 0.97 0.6 1.69 1.06 0.71 0.45 1.64 1.04 2.06 1.31 0.42 0.27 0.77 0.48 0.78 0.48 0.01-0.01-0.18-0.8-0.42-1.75-0.23-0.96-0.54-2.19-0.68-2.74-0.14-0.55-0.32-1.29-0.4-1.64-0.14-0.58-0.16-0.68-0.15-0.96 0-0.26 0.01-0.36 0.08-0.57 0.04-0.14 0.11-0.31 0.16-0.39 0.04-0.07 0.14-0.21 0.21-0.31 0.08-0.1 0.22-0.25 0.32-0.33 0.09-0.08 0.4-0.35 0.68-0.58 0.27-0.24 0.74-0.64 1.03-0.88 0.29-0.25 0.77-0.65 1.05-0.9 0.29-0.24 0.59-0.51 0.68-0.6 0.09-0.08 0.45-0.38 0.79-0.67 0.34-0.29 0.65-0.56 0.69-0.6l0.06-0.07q-0.84-0.06-1.42-0.09c-0.38-0.03-0.91-0.06-1.18-0.08-0.27-0.01-0.9-0.05-1.4-0.09-0.49-0.03-1.07-0.07-1.27-0.09-0.2-0.02-0.58-0.06-0.83-0.09-0.25-0.03-0.57-0.08-0.71-0.1q-0.25-0.05-0.52-0.18c-0.15-0.07-0.34-0.2-0.44-0.29-0.1-0.08-0.23-0.22-0.3-0.29-0.07-0.08-0.15-0.21-0.2-0.29-0.04-0.08-0.17-0.38-0.29-0.67-0.12-0.29-0.45-1.13-0.75-1.88-0.29-0.75-0.74-1.91-0.99-2.57-0.26-0.67-0.48-1.24-0.5-1.27q-0.03-0.04-0.05-0.03z"/>
</svg>