<svg width="1920" height="274" viewBox="0 0 1920 274" fill="none" xmlns="http://www.w3.org/2000/svg">
<path d="M-4.12626e-06 47.199C-4.12626e-06 47.199 64.1729 68.1121 139.41 68.1121C286.119 68.1121 392.45 -8.79632e-05 481 4.20505e-05C569.55 0.000172064 623.115 14.6989 690.5 43.9999C757.885 73.301 826.511 126.5 1002.26 126.5C1178 126.5 1288 53.9997 1440 53.9997C1592 53.9997 1698 91.0001 1787 125.5C1876 160 1920 147 1920 147L1920 273.5L1439.5 273.5L705 273.5L-2.39101e-05 273.5L-4.12626e-06 47.199Z" fill="white"/>
</svg>
